<svg width="20" height="20" viewBox="0 0 20 20" fill="none" xmlns="http://www.w3.org/2000/svg">
<rect width="20" height="20" rx="2" fill="white"/>
<path d="M10.6112 14.3754C10.4596 14.3741 10.3148 14.3127 10.2086 14.2046L5.40066 9.31539C5.2944 9.20734 5.23541 9.06149 5.23669 8.90994C5.23796 8.7584 5.29938 8.61356 5.40744 8.5073C5.51549 8.40104 5.66134 8.34206 5.81289 8.34333C5.96443 8.3446 6.10927 8.40602 6.21553 8.51408L10.6227 12.9959L15.1046 8.58864C15.2126 8.48238 15.3585 8.42339 15.51 8.42466C15.6616 8.42594 15.8064 8.48736 15.9127 8.59542C16.0189 8.70347 16.0779 8.84932 16.0766 9.00087C16.0754 9.15241 16.0139 9.29725 15.9059 9.40351L11.0166 14.2114C10.9086 14.3177 10.7627 14.3766 10.6112 14.3754Z" fill="#070641"/>
</svg>
