<svg width="20" height="20" viewBox="0 0 20 20" fill="none" xmlns="http://www.w3.org/2000/svg">
<rect width="20" height="20" rx="2" fill="white"/>
<path d="M15.245 16.498C15.435 16.4983 15.6177 16.5707 15.7564 16.7005C15.895 16.8303 15.9793 17.0079 15.9921 17.1974C16.0049 17.3869 15.9453 17.5742 15.8254 17.7215C15.7055 17.8688 15.5342 17.9651 15.346 17.991L15.245 17.998H4.75002C4.55999 17.9979 4.37707 17.9258 4.23822 17.796C4.09937 17.6663 4.01494 17.4887 4.00199 17.2991C3.98904 17.1095 4.04853 16.9221 4.16845 16.7747C4.28837 16.6273 4.45977 16.5309 4.64802 16.505L4.75002 16.498H15.245ZM10.004 2C10.1853 2.00001 10.3604 2.06564 10.4969 2.18477C10.6335 2.30389 10.7224 2.46845 10.747 2.648L10.754 2.75L10.753 12.943L13.719 9.973C13.8459 9.84557 14.0144 9.76799 14.1938 9.75441C14.3731 9.74083 14.5513 9.79214 14.696 9.899L14.78 9.971C14.9073 10.098 14.9847 10.2666 14.9981 10.4459C15.0115 10.6253 14.96 10.8034 14.853 10.948L14.781 11.032L10.538 15.282L10.468 15.345L10.376 15.404L10.34 15.425L10.249 15.463L10.129 15.493L10.059 15.501L9.99901 15.503C9.9486 15.5029 9.89832 15.4975 9.84902 15.487L9.76702 15.464C9.67235 15.4332 9.58491 15.3836 9.51002 15.318L5.22002 11.033C5.08548 10.8993 5.00657 10.7197 4.99917 10.5302C4.99177 10.3407 5.05644 10.1554 5.18015 10.0117C5.30386 9.86794 5.47743 9.77641 5.66592 9.7555C5.8544 9.73459 6.04381 9.78587 6.19602 9.899L6.28002 9.972L9.25302 12.939V2.75C9.25302 2.55109 9.33203 2.36032 9.47268 2.21967C9.61334 2.07902 9.8041 2 10.003 2H10.004Z" fill="#1AE246"/>
</svg>
